<?xml version="1.0" encoding="utf-8"?>
<!-- Generator: Adobe Illustrator 23.0.1, SVG Export Plug-In . SVG Version: 6.00 Build 0)  -->
<svg version="1.1" id="Layer_2" xmlns="http://www.w3.org/2000/svg" xmlns:xlink="http://www.w3.org/1999/xlink" x="0px" y="0px"
	 viewBox="0 0 1397.6 1075" style="enable-background:new 0 0 1397.6 1075;" xml:space="preserve">
<style type="text/css">
	.st0{fill:#FDC305;}
	.st1{fill:#F06351;}
	.st2{fill:#E55645;}
	.st3{fill:#111111;}
</style>
<path class="st0" d="M1016.7,477c-75.4-180.5-282.9-265.7-463.4-190.3S287.5,569.6,363,750.1C412.6,868.8,519.3,946.3,638,964
	c-8-28.9-16.1-60.9-23.4-94.8c20.7,13.7,42.7,25,66,35.4c-0.1,0-0.2,0.1-0.3,0.1c0,0,1.6,29.8,3.9,63.2c24.5,0.4,49.3-1.7,74-6.6
	c-0.6-2.2-0.6-5.6,0.2-10.5c4-25.8,15.1-72.4,17.3-102.5c15.6-14.7,29.6-32.2,40.1-51.4c0,0.2,0,0.3-0.1,0.5c-0.2,2-0.5,4-0.8,6
	c-7.7,59-23.6,121.9-33.2,139.3c-3.4,6.1-7.6,11.9-11.5,16c18.9-4.4,37.7-10.5,56.3-18.2C1006.9,865,1092.1,657.5,1016.7,477z
	 M996.3,529.3c-6,6-18.7,10-20.7-8s-2.7-30.7-2.7-30.7s-26.7-47.3-36.7-48c-10-0.7-80.7,48-99.3,68.7c-16.1,17.8-19.3,16.7-19.3,48
	c0,23.7,3,113,1.4,181.3v0v0c0,0-30,8-112.7,30c-82.7,22-108,24.7-108,24.7l-14-80.7c0,0,0,0,0,0c-0.1,0-0.3,0-0.5-0.1c0,0,0,0,0,0
	c-0.1,0-0.3,0-0.5-0.1c-0.2,0-0.4-0.1-0.7-0.1c0,0,0,0,0,0L546.9,532c0,0-52.7-20-72-25.3c-19.3-5.3-31.3-9.3-56,8.7
	c-24.7,18-24,53.3-24,53.3s6,13.3,6.7,20c0.7,6.7-16.7,6-28,6s-12.7-20-4-43.3c8.7-23.3,26.7-51.3,26.7-51.3s16.7-31.3,28.7-40
	c0,0,2-4.7,17.3-3.3c15.3,1.3,100.7,6,100.7,6l0.7-31.5c92.6-12.6,186.6-19,280.1-18.5c-0.1,8.4-0.4,16.8-0.8,25.3
	c0,0,60.7-28,112.7-27.3c0,0,6-0.7,10.7,5.3c4.7,6,33.3,41.3,36.7,46.7c3.3,5.3,16.7,24,25.3,42
	C1008.3,504.7,1002.3,523.3,996.3,529.3z"/>
<path class="st1" d="M969.3,444.8c6.6,8.3,12.3,15.6,13.7,17.8c3.3,5.3,16.7,24,25.3,42c0,0-6,18.7-12,24.7s-18.7,10-20.7-8
	s-2.7-30.7-2.7-30.7s-26.7-47.3-36.7-48c-10-0.7-80.7,48-99.3,68.7c-16.1,17.8-19.3,16.7-19.3,48c0,20.8,2.3,92,1.8,155.3
	c25,2.9,61.8,9.8,72.9,26c0,0-4-99.3,108-47.3c0,0,4-135.3,158.7-100.7C1158.9,592.7,1080.5,496.4,969.3,444.8z"/>
<path class="st1" d="M823.7,412.7c2-117.8-19.5-228.7-19.5-228.7s-2-18-12-3.3c-10,14.7-16.7,54.7-16.7,54.7
	c-103.3-6-177.3,4.7-177.3,4.7c-11.3-38-30.7-54.7-40-50.7c-9.3,4-10,46-10,46l-4.6,195.9C636.3,418.6,730.3,412.2,823.7,412.7z"/>
<path class="st2" d="M815.7,796.8c1.8-14.7,2.8-34.4,3.3-56.2c0,0-30,8-112.7,30c-82.7,22-108,24.7-108,24.7l15.3,69.3
	c0.3,1.5,0.6,3,1,4.5c20.7,13.7,42.7,25,66,35.4c60.5-29.9,95.1-57.2,95.1-57.2c0,0.3,0,0.6-0.1,0.9
	C791.2,833.5,805.1,816,815.7,796.8z"/>
<path d="M630.9,369.3c-0.6-1.3,14.2,9.5,19.5,12.8c5.3,3.3,8.5,5.9,8.5,8.2c0,2.3-3.7,4.7-8.7,4.7s-12.7-1.7-13.3-3.7
	c0,0,8.3-0.3,13-0.3h4C653.9,391,634.6,376.7,630.9,369.3z"/>
<path d="M734.7,370.9c0,0-14.5,17.7-15.1,18.5c-0.5,0.8-2.3,4.7,2.6,4.1s15.4-3.1,16.9-3.9c1.5-0.8,1-2.7-1.6-2.4
	c-2.8,0.3-9.5,0.7-13.7,1.5l11.7-17.5C735.5,371.1,735.9,369.4,734.7,370.9z"/>
<path d="M691.2,455.5c0,0,11.3-4.9,15.1-14s0.5-12.7-6.1-13.6s-18.6-0.4-24.1,4.7s-4.8,10.1-0.8,13.3S687.1,454.3,691.2,455.5z"/>
<path class="st1" d="M685.6,472.9c0,0-2.5,5.2-6.4,8.3c-3.4,2.7-7.9,5.1-14.1,5.4c-8.9,0.5-14.7-2.4-20.2-6.2
	c-2.8-2-5.5-3.5-7.4-6.1c-2.2-2.5-4.9-3.5-4.9-3.5s10.4,56.9,35.6,65.9s29.8-10.4,30.6-15.7c0.7-4.5,0-28.9-11.4-44.8
	C687.2,471.9,687,474.7,685.6,472.9z"/>
<g>
	<path d="M662.8,488.6c-0.1,0-0.1,0-0.2,0c-18-0.2-31.8-18.9-32.4-19.7c-0.7-0.9-0.5-2.1,0.4-2.8c0.9-0.7,2.1-0.5,2.8,0.4
		c0.1,0.2,13.3,17.9,29.2,18.1c0.1,0,0.1,0,0.2,0c8.1,0,15.7-4.6,22.6-13.7l2-2.6l1.4,3c0,0.1,5.2,10.5,13.7,11
		c6.9,0.4,14.6-5.7,22.4-17.8c0.6-0.9,1.8-1.2,2.8-0.6c0.9,0.6,1.2,1.8,0.6,2.8c-8.8,13.5-17.6,20.1-26.1,19.6
		c-7.8-0.5-13.1-6.9-15.5-10.6C679.5,484.2,671.5,488.6,662.8,488.6z"/>
</g>
<circle class="st0" cx="689.8" cy="622.9" r="51.9"/>
<path class="st3" d="M758.7,580.8L715.4,599l15.9-78L627.5,656l43.3-18.1l-15.9,78L758.7,580.8z M656.5,633.7l57.2-74.8l-11.2,55.6
	l27.2-11.4L672.5,678l11.2-55.6L656.5,633.7z"/>
<circle class="st3" cx="637" cy="598" r="15.5"/>
<circle class="st3" cx="727.2" cy="658.7" r="11"/>
<circle class="st3" cx="740.6" cy="634.7" r="4.8"/>
<path class="st1" d="M822.9,437.7c0,0-35.3,31.2-70.3,72.1s-73.5,67.7-73.5,67.7c-3-7.3-22.5-20.9-22.5-20.9s-43.5-29.7-72-53.1
	c-16.4-13.4-32.6-30.1-43.4-41.8c-4.1-0.2-14.8-0.8-27.9-1.5c65.2,96.8,166.3,122.3,166.3,122.3c12-1.9,45.5-25.8,70.5-45.3
	c25-19.5,66-62.8,82.5-81.8c8.3-9.6,13.1-19.7,15.8-27.4C833,433.2,822.9,437.7,822.9,437.7z"/>
<path class="st1" d="M546.9,532c0,0-52.7-20-72-25.3c-19.3-5.3-31.3-9.3-56,8.7c-24.7,18-24,53.3-24,53.3s6,13.3,6.7,20
	c0.7,6.7-16.7,6-28,6s-12.7-20-4-43.3c8.7-23.3,26.7-51.3,26.7-51.3c-75.3,39.3-208,130-208,130s40.7-4,113.3,3.3
	c72.7,7.3,68.7,64.7,68.7,64.7s48.7-13.3,78-15.3c29.3-2,31.3,29.3,31.3,29.3l7.3,53.3c0,0,6.7-8.7,36.7-32.7
	c25.8-20.6,53.8-18.8,60.7-18c0,0,0,0,0,0L546.9,532z"/>
</svg>
